<svg width="35" height="26" viewBox="0 0 35 26" fill="none" xmlns="http://www.w3.org/2000/svg">
<path fill-rule="evenodd" clip-rule="evenodd" d="M6.35991 1.33307C6.19908 1.25276 5.95784 1.33307 5.7166 1.41339L5.47536 1.57403C5.31453 1.65435 5.07329 1.73467 4.91247 1.81499C4.5104 1.97562 4.02792 2.21658 3.62585 2.37722C3.14337 2.61817 2.58048 2.85913 2.098 3.10008C1.5351 3.34104 0.972211 3.58199 0.489731 3.82295C0.409318 3.90327 0.248491 3.90327 0.168078 4.06391C0.00725087 4.22454 -0.0731625 4.54582 0.0876642 4.70645C0.168078 4.86709 0.409318 4.94741 0.570144 5.02773C0.891798 5.10805 1.21345 5.10805 1.5351 5.10805C1.77634 5.18837 2.01759 5.18837 2.25883 5.349C2.66089 5.58996 2.90213 6.07187 2.90213 6.55378V24.2239C2.90213 24.4648 3.14337 24.7058 3.38461 24.7058H6.19908C6.44032 24.7058 6.68156 24.4648 6.68156 24.2239V5.58996V4.54582V2.69849V1.81499C6.68156 1.65435 6.60115 1.41339 6.35991 1.33307Z" fill="#585857"/>
<mask id="mask0_4709_33601" style="mask-type:alpha" maskUnits="userSpaceOnUse" x="9" y="0" width="26" height="26">
<path fill-rule="evenodd" clip-rule="evenodd" d="M9.05225 0.764648H34.0352V25.2346H9.05225V0.764648Z" fill="white"/>
</mask>
<g mask="url(#mask0_4709_33601)">
<path fill-rule="evenodd" clip-rule="evenodd" d="M34.0225 12.4976C33.9413 11.3731 33.7805 10.2487 33.3784 9.12421C32.9763 7.91943 32.333 6.79497 31.5289 5.75083C29.5998 3.26095 26.7041 1.49394 23.6492 0.931711C20.3523 0.369481 16.8141 1.25299 14.1604 3.18063C11.5068 5.10828 9.65728 8.2407 9.1748 11.5338C8.69232 14.8268 9.65728 18.4412 11.6676 21.0917C11.8276 21.3326 12.0697 21.5736 12.3109 21.8145C13.4359 23.0193 14.8037 24.0635 16.412 24.6265C16.4924 24.6265 16.4924 24.6265 16.5728 24.706H16.6524C16.8945 24.706 17.1357 24.4651 17.1357 24.2249C17.1357 23.8233 16.8141 23.5816 16.5728 23.3406C14.8841 21.4933 14.1604 18.5215 13.9996 16.1119C13.7584 13.4614 14.1604 9.76676 15.6883 6.87529C16.0903 6.15242 16.4924 5.50987 17.0545 4.86732C18.2607 3.58222 19.869 2.6184 21.6389 2.6184C23.3267 2.6184 25.0162 3.42159 26.2224 4.62637C27.4286 5.83115 28.2328 7.3572 28.7957 8.88325C29.5998 11.1322 29.9206 13.7827 29.5998 16.1922C29.2781 18.6018 27.8307 22.2965 25.0162 22.6177C23.408 22.7784 22.2018 21.4933 21.6389 20.1279C21.2368 19.0034 21.1564 17.5577 21.3164 16.2726C21.5585 16.6742 21.7997 17.0757 21.7997 17.0757C21.7997 17.0757 21.7997 17.1561 21.8793 17.1561C22.3626 17.8789 23.0059 18.8428 23.408 19.4853C23.8896 20.2082 24.3729 19.6459 24.6142 19.0837C25.0162 18.2002 25.0958 17.397 24.6938 16.5135C24.3729 15.7907 23.8896 15.0678 23.408 14.4252C23.1667 14.0236 22.9247 13.7024 22.7647 13.3008C22.3626 12.4173 22.1205 11.5338 22.2018 10.5699V10.2487V10.1683C22.2018 10.0077 22.2814 9.84707 22.2814 9.68644L23.9709 12.1763C24.0513 12.337 24.1309 12.4976 24.2917 12.4976C24.5329 12.5779 24.6938 12.4173 24.8554 12.2566C25.3371 11.6944 25.3371 11.0519 25.1771 10.329C25.1771 10.2487 25.0958 10.1683 25.0958 10.088C25.0162 9.92739 24.935 9.68644 24.8554 9.5258L23.0855 5.83115C23.0059 5.67051 22.9247 5.42955 22.6834 5.34923H22.6038H22.5226H22.443H22.3626H22.2814C22.2018 5.34923 22.1205 5.42955 22.0409 5.42955C21.7997 5.59019 21.6389 5.75083 21.5585 5.99178C20.8347 6.95561 20.0306 7.91943 19.3061 8.88325C19.0648 9.20453 18.744 9.60612 18.5019 10.0077C18.1811 10.4093 17.8586 10.9715 17.9399 11.5338C18.0203 11.7747 18.1811 12.096 18.5019 12.096C18.6628 12.096 18.8244 11.9354 18.904 11.7747C19.4669 11.1322 20.3523 10.2487 20.8347 9.60612L20.9143 9.5258C20.6731 11.0519 20.1914 12.4173 19.3873 13.7024C18.5832 14.9875 17.6986 16.2726 16.8945 17.5577C16.6524 18.0396 16.3316 18.6018 16.4924 19.0837C16.5728 19.3247 16.8141 19.6459 17.0545 19.5656C17.2161 19.5656 17.377 19.405 17.4566 19.2444C17.6986 18.8428 18.1811 18.2805 18.5832 17.7986C19.2265 16.9954 19.7894 16.2726 19.7894 16.2726L19.869 16.1922C19.7081 16.5938 19.6285 16.9954 19.5481 17.4773C19.3061 18.8428 19.1461 20.2082 19.4669 21.5736C19.869 23.3406 21.0752 24.5454 22.8451 25.0281C24.775 25.5895 26.7853 24.947 28.3936 23.8233C29.1977 23.3406 29.841 22.698 30.4843 22.0555C32.8163 19.4853 34.1825 15.9513 34.0225 12.4976Z" fill="#585857"/>
</g>
</svg>
