<svg width="24" height="24" viewBox="0 0 24 24" fill="none" xmlns="http://www.w3.org/2000/svg">
<path fill-rule="evenodd" clip-rule="evenodd" d="M8.18759 5.35871C8.48048 5.06582 8.95535 5.06582 9.24825 5.35871L14.6854 10.7959L18.221 10.7959L13.8444 6.41937C13.5515 6.12648 13.5515 5.65161 13.8444 5.35871C14.1373 5.06582 14.6122 5.06582 14.9051 5.35871L20.562 11.0156C20.8548 11.3085 20.8548 11.7833 20.562 12.0762L14.9051 17.7331C14.6122 18.026 14.1373 18.026 13.8444 17.7331C13.5515 17.4402 13.5515 16.9653 13.8444 16.6724L18.221 12.2959L14.6854 12.2959L9.24825 17.7331C8.95535 18.026 8.48048 18.026 8.18759 17.7331C7.89469 17.4402 7.89469 16.9653 8.18759 16.6724L12.5641 12.2959L8.71792 12.2959H3.06106C2.64685 12.2959 2.31106 11.9601 2.31106 11.5459C2.31106 11.1317 2.64685 10.7959 3.06106 10.7959L8.71792 10.7959L12.5641 10.7959L8.18759 6.41937C7.89469 6.12648 7.89469 5.65161 8.18759 5.35871Z" fill="#424242"/>
</svg>
